<?xml version="1.0" encoding="UTF-8"?>
<!DOCTYPE svg PUBLIC "-//W3C//DTD SVG 1.0//EN" "http://www.w3.org/TR/2001/REC-SVG-20010904/DTD/svg10.dtd">
<svg version="1.1" xmlns="http://www.w3.org/2000/svg" xml:space="preserve" width="2480px" height="3508px" version="1.0" style="shape-rendering:geometricPrecision; text-rendering:geometricPrecision; image-rendering:optimizeQuality; fill-rule:evenodd; clip-rule:evenodd" viewBox="0 0 2480 3507" xmlns:xlink="http://www.w3.org/1999/xlink" xml:space="preserve">
<path class="fil0" d="M692 1790c-3,8 -9,14 -17,19 -9,6 -17,8 -24,8 -11,0 -22,-5 -35,-16 -13,-10 -26,-24 -40,-42 -15,-18 -29,-38 -44,-61 -14,-23 -28,-46 -42,-70 -13,-24 -26,-48 -37,-72 -12,-23 -22,-45 -30,-64 -16,54 -31,107 -45,158 -14,51 -27,98 -39,140 -14,0 -27,-4 -38,-12 -11,-7 -16,-17 -16,-29 0,-6 1,-13 3,-22 3,-8 5,-16 8,-23 18,-54 34,-104 50,-150 16,-47 32,-92 48,-135 17,-44 33,-87 51,-131 17,-44 37,-89 58,-137 -18,2 -33,6 -47,12 -14,5 -26,10 -36,15 -10,5 -18,10 -25,14 -7,3 -11,5 -14,5 -1,0 -4,0 -6,-2 -3,-2 -6,-4 -9,-6 -3,-2 -5,-4 -7,-7 -2,-2 -3,-5 -3,-7 10,-4 22,-9 36,-14 13,-5 28,-10 44,-15 16,-4 32,-8 50,-11 17,-3 35,-5 54,-5 23,0 47,3 72,9 24,6 46,15 66,27 20,12 36,28 49,47 13,20 19,43 19,70 0,27 -6,50 -18,69 -13,19 -29,36 -48,49 -20,13 -41,23 -65,31 -23,8 -47,14 -69,18 -23,4 -44,7 -62,8 -19,2 -33,2 -42,2 16,29 32,57 47,85 15,27 32,54 51,81 18,27 40,54 64,81 24,27 54,55 88,83zm0 -524c0,-22 -5,-41 -13,-56 -9,-15 -20,-27 -33,-36 -14,-10 -29,-16 -47,-20 -17,-4 -35,-7 -54,-7 -19,38 -38,83 -56,136 -19,52 -36,107 -53,164 29,-1 59,-6 90,-14 30,-7 58,-18 82,-33 25,-15 45,-33 60,-55 16,-22 24,-49 24,-79zm260 279c2,1 5,2 9,3 4,1 8,2 11,4 4,2 7,3 9,6 3,2 4,4 4,8 0,5 -3,11 -7,20 -5,9 -11,19 -17,29 -6,11 -11,22 -16,33 -5,11 -8,22 -8,31 0,8 3,17 7,24 4,8 11,12 21,12 15,0 34,-10 58,-32 24,-21 48,-53 73,-97l8 8c-9,23 -19,43 -32,61 -12,18 -26,34 -40,47 -15,13 -29,23 -45,30 -15,8 -30,11 -45,11 -20,0 -35,-6 -44,-18 -10,-12 -14,-25 -14,-39 0,-7 0,-15 2,-24 -24,32 -45,55 -65,71 -19,16 -38,24 -58,24 -18,0 -32,-6 -44,-17 -11,-11 -17,-28 -17,-51 0,-16 3,-34 10,-52 6,-19 14,-37 25,-56 11,-19 24,-37 39,-54 14,-17 30,-32 47,-45 16,-13 34,-24 52,-32 18,-8 36,-12 53,-12 22,0 39,6 54,17 14,11 21,26 21,45 0,13 -4,22 -11,27 -8,5 -17,8 -29,8 3,-10 4,-20 4,-29 0,-12 -3,-23 -9,-32 -6,-9 -16,-14 -31,-14 -13,0 -26,4 -39,12 -13,7 -26,18 -39,30 -12,13 -24,28 -35,44 -11,16 -20,33 -29,50 -8,18 -15,34 -19,51 -5,17 -7,32 -7,45 0,21 7,31 22,31 12,0 26,-6 42,-19 16,-13 32,-29 47,-48 16,-18 31,-38 46,-58 14,-20 26,-38 36,-53zm411 49c-7,17 -15,31 -24,42 -9,12 -18,22 -28,29 -9,8 -19,14 -28,17 -10,4 -19,5 -27,5 -10,0 -20,-2 -31,-7 -10,-5 -20,-11 -29,-19 0,34 -4,68 -11,102 -8,34 -17,65 -29,92 -12,27 -26,49 -41,67 -15,17 -30,25 -45,25 -5,0 -9,-1 -14,-3 -6,-1 -11,-5 -15,-10 -5,-5 -9,-13 -12,-22 -3,-9 -4,-21 -4,-37 0,-20 3,-47 9,-80 7,-32 15,-68 26,-107 12,-38 25,-79 40,-122 15,-43 31,-85 49,-126 17,-41 36,-81 55,-118 20,-37 39,-70 59,-99 19,-28 39,-50 58,-67 19,-17 37,-26 54,-26 11,0 18,4 22,11 4,7 5,15 5,25 0,24 -6,49 -19,77 -13,28 -30,56 -51,83 -21,28 -44,55 -70,80 -26,26 -52,48 -78,66 -3,6 -5,13 -8,20 -2,7 -5,14 -7,21 6,1 10,4 14,9 3,5 5,11 6,17 3,18 6,35 9,51 3,15 7,29 12,40 4,12 11,21 19,27 8,6 18,9 31,9 19,0 35,-7 48,-20 13,-14 28,-34 43,-60l12 8zm-189 76c0,-17 -2,-33 -6,-47 -5,-14 -12,-30 -21,-49 -11,30 -20,60 -29,90 -9,29 -16,57 -22,83 -7,26 -12,49 -15,70 -4,21 -5,38 -5,52 0,12 1,22 4,29 2,7 6,10 11,10 5,0 11,-4 17,-12 6,-8 12,-18 19,-31 6,-13 12,-27 18,-44 5,-17 10,-34 15,-51 4,-18 8,-36 10,-53 3,-18 4,-33 4,-47zm185 -485c-11,0 -23,7 -36,20 -12,13 -26,32 -40,55 -14,23 -29,50 -43,81 -15,30 -29,63 -43,97 26,-24 50,-49 72,-74 21,-25 39,-49 54,-71 15,-22 27,-41 35,-59 8,-17 12,-29 12,-37 0,-8 -3,-12 -11,-12zm206 360c2,1 5,2 9,3 4,1 7,2 11,4 3,2 6,3 9,6 2,2 4,4 4,8 0,5 -3,11 -8,20 -5,9 -10,19 -16,29 -6,11 -12,22 -16,33 -5,11 -8,22 -8,31 0,8 2,17 7,24 4,8 11,12 21,12 15,0 34,-10 58,-32 24,-21 48,-53 73,-97l8 8c-9,23 -20,43 -32,61 -13,18 -26,34 -40,47 -15,13 -30,23 -45,30 -15,8 -30,11 -45,11 -20,0 -35,-6 -44,-18 -10,-12 -15,-25 -15,-39 0,-7 1,-15 3,-24 -24,32 -46,55 -65,71 -19,16 -38,24 -59,24 -17,0 -32,-6 -43,-17 -11,-11 -17,-28 -17,-51 0,-16 3,-34 9,-52 7,-19 15,-37 26,-56 11,-19 24,-37 38,-54 15,-17 31,-32 47,-45 17,-13 34,-24 52,-32 18,-8 36,-12 54,-12 21,0 39,6 53,17 14,11 22,26 22,45 0,13 -4,22 -11,27 -8,5 -18,8 -29,8 2,-10 4,-20 4,-29 0,-12 -3,-23 -9,-32 -6,-9 -17,-14 -31,-14 -14,0 -27,4 -40,12 -13,7 -26,18 -38,30 -13,13 -24,28 -35,44 -11,16 -21,33 -29,50 -9,18 -15,34 -20,51 -4,17 -7,32 -7,45 0,21 8,31 22,31 13,0 27,-6 43,-19 16,-13 31,-29 47,-48 16,-18 31,-38 46,-58 14,-20 26,-38 36,-53zm375 -71c0,21 -6,40 -19,59 -12,18 -28,34 -47,48 -20,14 -42,26 -66,35 -24,9 -47,15 -71,17 -1,5 -2,10 -2,15 -1,5 -1,10 -1,14 0,8 1,17 3,25 2,8 5,15 10,22 5,6 12,12 20,16 9,4 19,6 32,6 17,0 34,-4 52,-12 17,-7 34,-18 50,-31 15,-13 30,-29 44,-46 14,-18 26,-36 37,-56l9 8c-11,24 -24,46 -40,66 -16,20 -33,37 -51,51 -18,14 -37,24 -58,32 -20,8 -40,11 -61,11 -33,0 -58,-9 -74,-27 -17,-18 -25,-41 -25,-67 0,-17 3,-34 8,-52 6,-18 14,-35 24,-53 10,-17 22,-34 35,-50 13,-15 28,-29 43,-41 16,-12 32,-22 48,-29 17,-7 33,-11 49,-11 13,0 24,4 35,10 11,7 16,20 16,40zm-53 -24c-13,0 -27,5 -42,15 -15,10 -29,23 -42,39 -14,16 -26,34 -37,54 -11,20 -19,40 -25,59 15,-5 32,-12 50,-21 19,-10 36,-21 53,-34 17,-13 31,-28 43,-44 11,-15 17,-32 17,-49 0,-6 -1,-11 -3,-14 -3,-4 -7,-5 -14,-5zm362 -259c0,12 -2,27 -7,46 -5,19 -13,40 -22,63 -10,22 -21,46 -35,71 -13,25 -28,50 -44,74 -16,25 -33,48 -52,69 -18,22 -37,41 -57,57 -3,15 -6,29 -8,43 -1,14 -2,27 -2,40 0,42 12,63 35,63 11,0 22,-4 33,-12 11,-7 22,-17 32,-29 10,-13 19,-27 29,-42 9,-16 17,-32 24,-48l12 7c-21,47 -45,83 -71,110 -25,27 -53,40 -82,40 -24,0 -40,-8 -50,-24 -11,-15 -16,-36 -16,-60 0,-26 5,-57 16,-94 10,-36 22,-74 38,-113 15,-39 33,-78 53,-116 19,-39 38,-73 57,-104 19,-30 36,-55 53,-73 16,-19 28,-29 38,-29 4,0 8,2 11,6 3,5 6,10 9,16 2,6 4,13 5,20 1,7 1,13 1,19zm-31 6c-3,0 -9,4 -18,14 -8,10 -17,23 -28,40 -10,17 -22,37 -34,60 -13,23 -25,47 -37,73 -12,25 -23,52 -34,79 -11,28 -20,55 -27,81 23,-24 46,-53 68,-85 22,-33 42,-65 59,-98 18,-32 31,-62 42,-90 10,-27 15,-48 15,-61 0,-6 -1,-9 -2,-11 -1,-2 -2,-2 -4,-2z"/>
</svg>
